<svg xmlns="http://www.w3.org/2000/svg" xmlns:xlink="http://www.w3.org/1999/xlink" viewBox="0 0 512 512"><defs><path id="a" d="M0 15.3h512v481.3H0z"/></defs><clipPath id="b"><use xlink:href="#a" overflow="visible"/></clipPath><path clip-path="url(#b)" fill="#FFF" d="M376.5 415c0 38.3-31.3 69.3-69.9 69.3h-224c-38.6 0-69.9-31-69.9-69.3V193.2c0-38.3 31.3-69.3 69.9-69.3h223.9c38.6 0 69.9 31 69.9 69.3V415z"/><path clip-path="url(#b)" fill="#00A79D" d="M82.6 136.2c-31.7 0-57.5 25.6-57.5 56.9V415c0 31.4 25.8 56.9 57.5 56.9h223.9c31.7 0 57.5-25.5 57.5-56.9V193.2c0-31.4-25.8-56.9-57.5-56.9l-223.9-.1zm223.9 360.5H82.6C37.2 496.7.2 460 .2 415V193.2c0-45 37-81.7 82.4-81.7h223.9c45.4 0 82.4 36.6 82.4 81.7V415c0 45-36.9 81.7-82.4 81.7z"/><path clip-path="url(#b)" fill="#154854" d="M497.9 15.3l-21.4 10.8c-111.9 56.3-236 186.8-303.9 297.2-6.6-12.3-8.6-16.3-14.8-29.8-26.4-47.1-62.3-89.1-79.8-105.2l-31.8 8.6.7 1.9c17.9 25.3 47.8 80.1 88.4 197.6 2.8 5.2 5.7 10.4 9.3 15.2 9.3 12.8 20 16.7 27.4 17.6 21 2.7 35.6-12.1 46.6-30.3C300.4 203.3 449.1 80.5 511.8 40l-13.9-24.7z"/></svg>